<?xml version="1.0" encoding="UTF-8"?>
<svg id="Layer_1" data-name="Layer 1" xmlns="http://www.w3.org/2000/svg" viewBox="0 0 486.4 123.06">
  <defs>
    <style>
      .cls-1 {
        fill: #1a5632;
      }
    </style>
  </defs>
  <g>
    <path class="cls-1" d="M126.63,123.06c14.44,0,28.14-13.92,28.14-27.97,0-4.29,0-95.09,0-95.09h-42.86v76.35c0,3.06-3.37,9.26-9.3,9.26h-50.46c-5.93,0-9.3-6.19-9.3-9.26V0H0s0,91.98,0,95.09C0,109.14,13.71,123.06,28.14,123.06h98.48Z"/>
    <path class="cls-1" d="M262.96,0h-49.23l-67.68,123.06h50.21l9.33-19.17h65.52l9.33,19.17h50.21L262.96,0ZM222.07,70l16.27-33.44,16.27,33.44h-32.54Z"/>
    <path class="cls-1" d="M333.21.17h110.5c25.13,0,36.32,11.02,36.32,30.64,0,10.84-5.34,20.31-14.63,23.93v.34c15.84,4.13,21,18.93,21,28.06,0,24.1-12.05,39.93-48.02,39.93h-105.17V.17ZM380.71,45.95h36.66c9.81,0,12.05-3.27,12.05-8.09,0-4.48-2.24-7.75-12.05-7.75h-36.66v15.84ZM380.71,93.11h41.48c9.64,0,12.56-4.13,12.56-9.64s-2.93-9.64-12.56-9.64h-41.48v19.28Z"/>
  </g>
  <path class="cls-1" d="M480.11,113.8c2.38,0,4.31,1.94,4.31,4.31s-1.94,4.31-4.31,4.31-4.31-1.94-4.31-4.31,1.94-4.31,4.31-4.31ZM480.11,121.8c2.04,0,3.69-1.65,3.69-3.69s-1.65-3.69-3.69-3.69-3.69,1.65-3.69,3.69,1.65,3.69,3.69,3.69ZM479.17,120.58h-.63v-4.98h1.91c1.12,0,1.57.49,1.57,1.38s-.58,1.3-1.25,1.41l1.48,2.18h-.71l-1.48-2.18h-.89v2.18ZM479.17,117.85h.8c.68,0,1.43-.03,1.43-.86,0-.64-.58-.82-1.11-.82h-1.11v1.68Z"/>
</svg>